{"title":"Selena Gomez &amp; The Scene - Round &amp; Round [Music Video] 1","uid":10249985,"size":71485785,"categoryP":"video","categoryS":"music_videos","magnet":"?xt=urn:btih:d70e0cc1cfc2b43cdb1b088bbdefcd53128eadda&amp;dn=Selena+Gomez+%26amp%3B+The+Scene+-+Round+%26amp%3B+Round+%5BMusic+Video%5D+1&amp;tr=udp%3A%2F%2Ftracker.openbittorrent.com%3A80&amp;tr=udp%3A%2F%2Fopen.demonii.com%3A1337&amp;tr=udp%3A%2F%2Ftracker.coppersurfer.tk%3A6969&amp;tr=udp%3A%2F%2Fexodus.desync.com%3A6969","seeders":0,"leechers":0,"uploader":"Sbyky","files":1,"time":1401337478,"description":"\n\nGeneral\nComplete name                            : Selena Gomez &amp; The Scene - Round &amp; Round [Music Video] 1080p [Sbyky].MP4\nFormat                                   : MPEG-4\nFormat profile                           : Base Media\nCodec ID                                 : isom\nFile size                                : 68.2 MiB\nDuration                                 : 3mn 25s\nOverall bit rate mode                    : Variable\nOverall bit rate                         : 2 785 Kbps\nEncoded date                             : UTC 2014-03-07 20:45:05\nTagged date                              : UTC 2014-03-07 20:45:05\n\nVideo\nID                                       : 1\nFormat                                   : AVC\nFormat/Info                              : Advanced Video Codec\nFormat profile                           : &lt;a class=&quot;__cf_email__&quot; href=&quot;/cdn-cgi/l/email-protection&quot; data-cfemail=&quot;bef6d7d9d6fef28a908e&quot;&gt;[email&amp;#160;protected]&lt;/a&gt;&lt;script data-cfhash='f9e31' type=&quot;text/javascript&quot;&gt;\n/* &lt;![CDATA[ */!function(){try{var t=&quot;currentScript&quot;in document?document.currentScript:function(){for(var t=document.getElementsByTagName(&quot;script&quot;),e=t.length;e--;)if(t[e].getAttribute(&quot;data-cfhash&quot;))return t[e]}();if(t&amp;&amp;t.previousSibling){var e,r,n,i,c=t.previousSibling,a=c.getAttribute(&quot;data-cfemail&quot;);if(a){for(e=&quot;&quot;,r=parseInt(a.substr(0,2),16),n=2;a.length-n;n+=2)i=parseInt(a.substr(n,2),16)^r,e+=String.fromCharCode(i);e=document.createTextNode(e),c.parentNode.replaceChild(e,c)}t.parentNode.removeChild(t);}}catch(u){}}()/* ]]&gt; */&lt;/script&gt;\nFormat settings, CABAC                   : Yes\nFormat settings, ReFrames                : 3 frames\nCodec ID                                 : avc1\nCodec ID/Info                            : Advanced Video Coding\nDuration                                 : 3mn 25s\nDuration_LastFrame                       : -40ms\nBit rate                                 : 2 657 Kbps\nWidth                                    : 1 920 pixels\nHeight                                   : 1 080 pixels\nDisplay aspect ratio                     : 16:9\nFrame rate mode                          : Constant\nFrame rate                               : 23.976 fps\nColor space                              : YUV\nChroma subsampling                       : 4:2:0\nBit depth                                : 8 bits\nScan type                                : Progressive\nBits/(Pixel*Frame)                       : 0.053\nStream size                              : 65.0 MiB (95%)\nEncoded date                             : UTC 2014-03-07 20:45:05\nTagged date                              : UTC 2014-03-07 20:45:05\n\nAudio\nID                                       : 2\nFormat                                   : AAC\nFormat/Info                              : Advanced Audio Codec\nFormat profile                           : LC\nCodec ID                                 : 40\nDuration                                 : 3mn 25s\nBit rate mode                            : Variable\nBit rate                                 : 126 Kbps\nChannel(s)                               : 2 channels\nChannel positions                        : Front: L R\nSampling rate                            : 44.1 KHz\nCompression mode                         : Lossy\nStream size                              : 3.07 MiB (5%)\nEncoded date                             : UTC 2014-03-07 20:43:58\nTagged date                              : UTC 2014-03-07 20:43:58\n\nShared By Sbyky\n","torrent":{"xt":"urn:btih:d70e0cc1cfc2b43cdb1b088bbdefcd53128eadda","amp;dn":"Selena+Gomez+%26amp%3B+The+Scene+-+Round+%26amp%3B+Round+%5BMusic+Video%5D+1","amp;tr":["udp%3A%2F%2Ftracker.openbittorrent.com%3A80","udp%3A%2F%2Fopen.demonii.com%3A1337","udp%3A%2F%2Ftracker.coppersurfer.tk%3A6969","udp%3A%2F%2Fexodus.desync.com%3A6969"],"infoHash":"d70e0cc1cfc2b43cdb1b088bbdefcd53128eadda","infoHashBuffer":{"type":"Buffer","data":[215,14,12,193,207,194,180,60,219,27,8,139,189,239,205,83,18,142,173,218]},"announce":[],"urlList":[]}}